{
    "asset" : {
        "generator" : "Khronos glTF Blender I/O v1.6.16",
        "version" : "2.0"
    },
    "scene" : 0,
    "scenes" : [
        {
            "name" : "Scene",
            "nodes" : [
                0,
                1
            ]
        }
    ],
    "nodes" : [
        {
            "mesh" : 0,
            "name" : "Player",
            "rotation" : [
                0,
                0,
                0.7071068286895752,
                0.7071068286895752
            ],
            "translation" : [
                -8.084070205688477,
                -8.316242218017578,
                2
            ]
        },
        {
            "mesh" : 1,
            "name" : "Observer",
            "rotation" : [
                0.3826834261417389,
                0,
                0,
                0.9238795638084412
            ],
            "translation" : [
                -30,
                30,
                20
            ]
        }
    ],
    "materials" : [
        {
            "doubleSided" : true,
            "name" : "Placeholder",
            "pbrMetallicRoughness" : {
                "baseColorTexture" : {
                    "index" : 0
                },
                "metallicFactor" : 0,
                "roughnessFactor" : 0.5
            }
        }
    ],
    "meshes" : [
        {
            "name" : "Cone.002",
            "primitives" : [
                {
                    "attributes" : {
                        "POSITION" : 0,
                        "NORMAL" : 1,
                        "TEXCOORD_0" : 2
                    },
                    "indices" : 3,
                    "material" : 0
                }
            ]
        },
        {
            "name" : "Cone.003",
            "primitives" : [
                {
                    "attributes" : {
                        "POSITION" : 4,
                        "NORMAL" : 5,
                        "TEXCOORD_0" : 6
                    },
                    "indices" : 3,
                    "material" : 0
                }
            ]
        }
    ],
    "textures" : [
        {
            "sampler" : 0,
            "source" : 0
        }
    ],
    "images" : [
        {
            "mimeType" : "image/jpeg",
            "name" : "placeholder",
            "uri" : "placeholder.jpg"
        }
    ],
    "accessors" : [
        {
            "bufferView" : 0,
            "componentType" : 5126,
            "count" : 12,
            "max" : [
                0.8660253882408142,
                1.0000001192092896,
                0.5
            ],
            "min" : [
                -0.866025447845459,
                -0.5000000596046448,
                -0.5000000596046448
            ],
            "type" : "VEC3"
        },
        {
            "bufferView" : 1,
            "componentType" : 5126,
            "count" : 12,
            "type" : "VEC3"
        },
        {
            "bufferView" : 2,
            "componentType" : 5126,
            "count" : 12,
            "type" : "VEC2"
        },
        {
            "bufferView" : 3,
            "componentType" : 5123,
            "count" : 12,
            "type" : "SCALAR"
        },
        {
            "bufferView" : 4,
            "componentType" : 5126,
            "count" : 12,
            "max" : [
                0.8660253882408142,
                1,
                0.5
            ],
            "min" : [
                -0.866025447845459,
                -0.5000000596046448,
                -0.5
            ],
            "type" : "VEC3"
        },
        {
            "bufferView" : 5,
            "componentType" : 5126,
            "count" : 12,
            "type" : "VEC3"
        },
        {
            "bufferView" : 6,
            "componentType" : 5126,
            "count" : 12,
            "type" : "VEC2"
        }
    ],
    "bufferViews" : [
        {
            "buffer" : 0,
            "byteLength" : 144,
            "byteOffset" : 0
        },
        {
            "buffer" : 0,
            "byteLength" : 144,
            "byteOffset" : 144
        },
        {
            "buffer" : 0,
            "byteLength" : 96,
            "byteOffset" : 288
        },
        {
            "buffer" : 0,
            "byteLength" : 24,
            "byteOffset" : 384
        },
        {
            "buffer" : 0,
            "byteLength" : 144,
            "byteOffset" : 408
        },
        {
            "buffer" : 0,
            "byteLength" : 144,
            "byteOffset" : 552
        },
        {
            "buffer" : 0,
            "byteLength" : 96,
            "byteOffset" : 696
        }
    ],
    "samplers" : [
        {
            "magFilter" : 9729,
            "minFilter" : 9987
        }
    ],
    "buffers" : [
        {
            "byteLength" : 792,
            "uri" : "camera.bin"
        }
    ]
}
